<svg id="Capa_2" data-name="Capa 2" xmlns="http://www.w3.org/2000/svg" viewBox="0 0 860 183.18"><path d="M572.29,82.66a10.74,10.74,0,0,1-14.68,10L509,165.52H352.16L303.57,92.66a10.64,10.64,0,0,1-3.92.75,10.77,10.77,0,1,1,8.53-4.21,63.51,63.51,0,0,0,19.94,15.6c6.7,3.31,21,10.42,30.36,5.06,8.72-5,12.37-20.47,7.88-39.26-.3,0-.62,0-.92,0a10.76,10.76,0,1,1,7-2.58c5.75,10,15.84,23.62,27.81,22.82a16.64,16.64,0,0,0,7.59-2.53c15.92-9.43,19.4-41.75,20.09-59.61a13.29,13.29,0,0,1,2-26.42h1.27a13.29,13.29,0,0,1,2,26.42c.69,17.86,4.17,50.18,20.09,59.61A16.64,16.64,0,0,0,461,90.88c12,.8,22.06-12.82,27.81-22.82a10.75,10.75,0,1,1,7,2.58c-.3,0-.62,0-.92,0-4.5,18.79-.84,34.25,7.88,39.26,9.33,5.36,23.66-1.75,30.36-5.06A63.51,63.51,0,0,0,553,89.2a10.75,10.75,0,1,1,19.28-6.54Z" transform="translate(0 -1.82)" fill="#ddb72c" stroke="#ddb72c" stroke-miterlimit="10"/><path d="M339.09,165.52H41.56a13.29,13.29,0,1,1,13.29-13.28,13.14,13.14,0,0,1-2,7h112a27.51,27.51,0,0,1-7.59-5.06,28.75,28.75,0,0,1-8.85-21.51c.49-11.8,9.61-22.74,22.77-26.57,2.26-.49,15.22-3.09,25.3,5.06a25.88,25.88,0,0,1,6.33,7.59c4,7.83,1.85,16.53-3.8,20.24a12.75,12.75,0,0,1-13.91,0c-5.28-3.65-6.34-11.09-3.8-16.44,2.85-6,9.3-7.43,10.12-7.59a24.22,24.22,0,0,0-27.83,2.53c-7.77,6.79-10.13,18.14-6.33,26.57,3,6.69,9.1,9.65,12.66,11.38,12.91,6.3,26,2.7,30.36,1.27,2.79-.95,6.7-2.27,11.38-3.8,0,0,10.4-3.39,20.25-6.32,26.87-8,46.25-13.77,70.85-16.45,4.79-.52,9-.85,12.31-1l5.33,7.39c-5.58.05-12.91.35-21.44,1.25a251.63,251.63,0,0,0-39.22,7.59c-8.37,2.19-15.28,4.42-29.1,8.86-5.79,1.86-10.95,3.56-15.36,5.06H334.52Z" transform="translate(0 -1.82)" fill="#ddb72c" stroke="#ddb72c" stroke-miterlimit="10"/><path d="M523,165.52H820.47a13.28,13.28,0,1,0-11.31-6.32h-112a27.51,27.51,0,0,0,7.59-5.06,28.72,28.72,0,0,0,8.86-21.51c-.49-11.8-9.62-22.74-22.77-26.57-2.27-.49-15.22-3.09-25.31,5.06a26,26,0,0,0-6.32,7.59c-4,7.83-1.85,16.53,3.79,20.24a12.77,12.77,0,0,0,13.92,0c5.28-3.65,6.34-11.09,3.8-16.44-2.85-6-9.3-7.43-10.13-7.59a24.23,24.23,0,0,1,27.84,2.53c7.77,6.79,10.13,18.14,6.32,26.57-3,6.69-9.09,9.65-12.65,11.38-12.92,6.3-26,2.7-30.36,1.27-2.8-.95-6.71-2.27-11.39-3.8,0,0-10.4-3.39-20.24-6.32-26.87-8-46.25-13.77-70.85-16.45-4.79-.52-9-.85-12.31-1l-5.34,7.39c5.58.05,12.92.35,21.45,1.25a251.87,251.87,0,0,1,39.22,7.59c8.37,2.19,15.28,4.42,29.09,8.86,5.8,1.86,11,3.56,15.36,5.06H527.52Z" transform="translate(0 -1.82)" fill="#ddb72c" stroke="#ddb72c" stroke-miterlimit="10"/><rect x="0.5" y="176.35" width="859" height="6.33" fill="#ddb72c" stroke="#ddb72c" stroke-miterlimit="10"/></svg>
